<?xml version="1.0" encoding="UTF-8" standalone="yes"?>
<svg width="300mm" height="300mm" viewBox="0 0 300 300" version="1.2" baseProfile="tiny-ps" xmlns="http://www.w3.org/2000/svg">
  <title>bimi-svg-tiny-12-ps</title>
  <defs id="defs798"/>
  <g id="g837" transform="translate(-8.7500947,-13.607123)">
    <g id="g43" transform="matrix(2.0476367,0,0,2.0476367,-166.31243,-102.63439)">
      <path fill="#13a661" stroke="none" d="m 128.34313,89.249119 c 0.0553,0.06976 0.11054,0.139535 0.26635,0.302678 0.4126,0.321701 0.72465,0.550031 1.03671,0.778361 0,0 0.0218,-0.02878 0.033,0.06846 2.5449,2.860556 3.69003,6.131052 3.62581,9.862712 -0.0629,3.65272 -0.13665,7.3063 -0.11989,10.95911 0.0267,5.80414 -0.19842,11.63489 0.28318,17.40427 0.48203,5.77427 2.95268,10.89593 7.04602,15.12616 0,0 0.005,-0.007 0.0184,0.0628 0.0908,0.11474 0.16813,0.15981 0.24542,0.2049 0,0 0.006,-0.01 0.0288,0.0742 0.3598,0.38082 0.69647,0.67751 1.03316,0.97421 0,0 0.002,-1e-5 0.0355,0.0828 1.512,1.17167 2.99056,2.26051 4.46912,3.34935 0,0 -0.003,0.008 0.0404,0.0729 0.18796,0.1147 0.33207,0.16454 0.4762,0.21437 0,0 0.005,-0.0164 0.0484,0.0654 2.18174,0.98848 4.28722,1.98578 6.46829,2.77394 1.83377,0.66271 1.86342,0.55361 1.58774,2.51091 -0.90409,6.41886 -1.40668,12.8583 -0.95742,19.34437 0.0808,1.16656 0.16637,2.3328 0.25477,3.56954 -0.3474,0 -0.57017,0.0439 -0.76908,-0.006 -3.70047,-0.93715 -7.50958,-1.58667 -11.06584,-2.91324 -3.76117,-1.40303 -7.28105,-3.45291 -10.90633,-5.22023 0,0 -0.0583,-0.0698 -0.14424,-0.14354 -0.18232,-0.10386 -0.27868,-0.13393 -0.37506,-0.16401 0,0 -0.008,0.0122 -0.0398,-0.0676 -0.27316,-0.20549 -0.51423,-0.33118 -0.75529,-0.45687 -0.0625,-0.0674 -0.12505,-0.1347 -0.28899,-0.29313 -0.32923,-0.21981 -0.55704,-0.34851 -0.78487,-0.47722 0,0 0.004,-0.0177 -0.0419,-0.0898 -0.80674,-0.63919 -1.56782,-1.20626 -2.3289,-1.77332 -0.0551,-0.0704 -0.11023,-0.14079 -0.25741,-0.31944 -0.76394,-0.68262 -1.43583,-1.25695 -2.10772,-1.83127 -0.21283,-0.23696 -0.42564,-0.47392 -0.73126,-0.81244 -0.17224,-0.14647 -0.25168,-0.19136 -0.33111,-0.23624 0,0 -0.0131,0.0191 -0.0251,-0.0742 -0.53775,-0.63538 -1.06352,-1.17746 -1.58931,-1.71955 -0.20529,-0.25483 -0.41059,-0.50967 -0.70884,-0.89237 -0.69671,-0.86685 -1.30046,-1.60583 -1.9042,-2.3448 0,0 -0.0172,0.0233 -0.0208,-0.0676 -0.17864,-0.29322 -0.35367,-0.49556 -0.5287,-0.69791 0,0 0.001,-0.006 -0.0161,-0.0955 -1.05847,-1.71217 -2.09948,-3.33439 -3.14048,-4.95661 0,0 -0.0186,0.0175 -0.0157,-0.0841 -3.71975,-7.13603 -5.90013,-14.63454 -6.10959,-22.57863 -0.21809,-8.2714 -0.0805,-16.55254 -0.0696,-24.82937 0.003,-1.97979 -0.009,-3.973768 0.21048,-5.936101 0.44223,-3.95398 2.6006,-6.917052 5.73196,-9.240996 0.0793,0.0021 0.15209,-0.01857 0.3566,-0.123266 0.74398,-0.320781 1.33795,-0.613535 1.95755,-0.834396 3.50541,-1.249569 6.84634,-0.691091 10.08095,0.955247 0,0 0.01,-0.01508 0.0376,0.06676 0.27241,0.206836 0.51684,0.33182 0.76127,0.456811 z" id="path331" stroke-width="0.264583"/>
      <path fill="#13a661" stroke="none" d="m 168.2958,142.83464 c -0.0404,-0.0293 -0.0809,-0.0585 -0.14988,-0.22279 1.83453,-9.59212 5.09263,-18.50722 10.5879,-26.47924 2.36268,-3.42756 5.04787,-6.63281 7.58652,-9.93906 0,-1e-5 -0.0219,-0.0145 0.0519,-0.0222 0.12096,-0.0867 0.16811,-0.1656 0.21527,-0.24455 0,-1e-5 -0.0249,-0.0132 0.0686,-0.0297 0.15737,-0.077 0.26633,-0.12997 0.27802,-0.19932 0.0978,-0.58048 0.17773,-1.16398 0.26306,-1.74658 -0.51239,0.005 -1.17368,-0.19831 -1.51396,0.046 -3.13839,2.25323 -6.29186,4.49661 -9.29198,6.92676 -1.62036,1.31252 -2.951,2.98271 -4.41235,4.49155 0,0 0.0231,0.0164 -0.0686,0.0358 -0.6537,0.70821 -1.21573,1.39696 -1.77775,2.08571 0,0 0.0188,0.0119 -0.0691,0.039 -0.65782,0.7948 -1.22773,1.56259 -1.79763,2.33035 0,0 0.0296,0.0217 -0.0617,0.0464 -4.51384,5.80764 -7.65786,12.28304 -10.222,19.46178 -1.54302,-3.92809 -2.2018,-7.55251 -2.48948,-11.25327 -0.75034,-9.65235 1.34538,-18.58441 7.10591,-26.44804 1.85721,-2.53525 4.21452,-4.704143 6.34308,-7.040612 0,0 0.004,-0.02273 0.0972,-0.05209 0.87557,-0.664993 1.65842,-1.300622 2.44126,-1.936257 0,0 -0.005,-0.0048 0.0873,-0.01768 0.55818,-0.338407 1.0011,-0.705606 1.49462,-0.982617 2.8538,-1.601785 5.71953,-3.182284 8.58123,-4.769985 0.17596,-0.103201 0.35192,-0.206383 0.7075,-0.30707 2.26633,-0.695137 4.33646,-1.448088 6.44313,-2.079082 4.6206,-1.383967 9.33599,-2.283815 14.17102,-2.370437 3.48042,-0.06236 3.97124,0.325893 4.52748,3.728011 1.41308,8.642495 1.09769,17.247239 -1.13803,25.708679 -3.52444,13.33894 -11.45923,22.92098 -24.47268,28.01859 -4.37652,1.71435 -8.94133,2.63654 -13.58579,3.22196 z" id="path333" stroke-width="0.264583"/>
      <path fill="#13a661" stroke="none" d="m 193.81213,153.57849 c 0.10817,0.11829 0.15957,0.18507 0.30263,0.24866 1.66222,1.80287 3.0213,3.72308 3.53118,6.12578 1.0011,4.71749 -0.18429,8.77927 -3.68567,12.23725 -2.66888,2.25997 -5.79557,3.2047 -9.09984,3.65283 -5.26344,0.71381 -10.53338,1.3797 -15.91878,2.05299 -1.44119,-4.92664 -2.03963,-9.94865 -2.21091,-15.01635 -0.0951,-2.8141 0.0314,-5.63591 0.0686,-8.4541 0.008,-0.58548 0.0431,-1.07062 0.87745,-1.17667 5.41263,-0.68804 10.82227,-1.40344 16.22354,-2.17542 3.63447,-0.51944 6.90211,0.25391 9.91175,2.50503 z" id="path639" stroke-width="0.264583"/>
    </g>
  </g>
  <text xml:space="preserve" x="10.439086" y="220.7381" id="text841" font-size="35.2778px" font-family="'PingFang HK'" stroke-width="0.264583"/>
</svg>